<?xml version="1.0" encoding="UTF-8"?>
<svg id="Layer_2" data-name="Layer 2" xmlns="http://www.w3.org/2000/svg" viewBox="0 0 220 72.08">
  <defs>
    <style>
      .cls-1 {
        fill-rule: evenodd;
      }

      .cls-1, .cls-2 {
        fill: #29333c;
        stroke-width: 0px;
      }
    </style>
  </defs>
  <g id="Layer_1-2" data-name="Layer 1">
    <g>
      <path class="cls-1" d="m220,15.22c-3.53-2.04-7.63-3.22-12-3.22s-8.47,1.17-12,3.22v-3.22h-12v48.06h12v-24.03c0-1.45.25-2.83.72-4.12,1.68-4.61,6.09-7.9,11.28-7.9.99,0,1.95.12,2.87.35l9.14-9.15Z"/>
      <path class="cls-1" d="m153,12c-13.26,0-24,10.76-24,24.03s10.75,24.03,24,24.03c5.41,0,10.39-1.79,14.41-4.81l-8.27-8.28s0,0,0,0c-1.86,1.11-3.97,1.76-6.14,1.76-5.07,0-9.81-3.55-11.76-8.2h23.51s11.82,0,11.82,0h0c.02-.13.05-.26.07-.39.23-1.34.35-2.72.35-4.12,0-13.27-10.75-24.03-24-24.03Zm0,11.33c-5.07,0-9.81,3.55-11.76,8.2h23.51c-1.94-4.64-6.68-8.2-11.76-8.2Z"/>
      <path class="cls-2" d="m110,60.08V0h12v60.08h-12Z"/>
      <path class="cls-1" d="m79,12c-13.26,0-24,10.76-24,24.03s10.75,24.03,24,24.03,24-10.76,24-24.03-10.75-24.03-24-24.03Zm0,12.02c-6.63,0-12,5.38-12,12.02s5.37,12.02,12,12.02,12-5.38,12-12.02-5.37-12.02-12-12.02Z"/>
      <path class="cls-2" d="m55,72.08V12h12v60.08h-12Z"/>
      <path class="cls-2" d="m0,60.08V0h12v60.08H0Z"/>
      <path class="cls-1" d="m31.98,12.02l-16.29,15.54c-4.92,4.69-4.92,12.3,0,16.99l16.29,15.53h16.02l-20.86-19.89c-2.4-2.29-2.4-5.99,0-8.28l20.86-19.89h-16.02Z"/>
    </g>
  </g>
</svg>